<svg width="47" height="68" viewBox="0 0 47 68" fill="none" xmlns="http://www.w3.org/2000/svg">
<g filter="url(#filter0_d_330:2)">
<ellipse cx="23" cy="49.5" rx="15" ry="10.5" fill="#24C034"/>
<ellipse cx="23" cy="49.5" rx="11.5385" ry="8.07692" fill="#117600"/>
</g>
<g filter="url(#filter1_d_330:2)">
<path d="M23.5 2C32.6156 2 40.0234 9.40801 40.0234 18.5234C40.0234 21.6078 39.1695 24.6097 37.5448 27.1983L24.6201 48.3496C24.3996 48.7076 24.0691 48.928 23.6835 48.9831C23.1604 49.0656 22.5818 48.8454 22.279 48.3222L9.31729 26.9779C7.77529 24.4444 6.97656 21.4977 6.97656 18.5234C6.97656 9.40801 14.3844 2 23.5 2ZM23.5 26.7852C28.1264 26.7852 31.7617 23.0398 31.7617 18.5234C31.7617 13.9794 28.044 10.2617 23.5 10.2617C18.956 10.2617 15.2383 13.9794 15.2383 18.5234C15.2383 23.0123 18.8185 26.7852 23.5 26.7852Z" fill="#24C034"/>
<path d="M23.5 2V10.2617C18.956 10.2617 15.2383 13.9794 15.2383 18.5234C15.2383 23.0123 18.8185 26.7852 23.5 26.7852V48.9992C23.0301 49.0101 22.5469 48.7848 22.2791 48.3222L9.31738 26.9779C7.77529 24.4444 6.97656 21.4978 6.97656 18.5234C6.97656 9.40801 14.3844 2 23.5 2Z" fill="#0FA831"/>
</g>
<defs>
<filter id="filter0_d_330:2" x="4" y="39" width="38" height="29" filterUnits="userSpaceOnUse" color-interpolation-filters="sRGB">
<feFlood flood-opacity="0" result="BackgroundImageFix"/>
<feColorMatrix in="SourceAlpha" type="matrix" values="0 0 0 0 0 0 0 0 0 0 0 0 0 0 0 0 0 0 127 0" result="hardAlpha"/>
<feOffset dy="4"/>
<feGaussianBlur stdDeviation="2"/>
<feColorMatrix type="matrix" values="0 0 0 0 0 0 0 0 0 0 0 0 0 0 0 0 0 0 0.49 0"/>
<feBlend mode="normal" in2="BackgroundImageFix" result="effect1_dropShadow_330:2"/>
<feBlend mode="normal" in="SourceGraphic" in2="effect1_dropShadow_330:2" result="shape"/>
</filter>
<filter id="filter1_d_330:2" x="-6" y="0" width="59" height="59" filterUnits="userSpaceOnUse" color-interpolation-filters="sRGB">
<feFlood flood-opacity="0" result="BackgroundImageFix"/>
<feColorMatrix in="SourceAlpha" type="matrix" values="0 0 0 0 0 0 0 0 0 0 0 0 0 0 0 0 0 0 127 0" result="hardAlpha"/>
<feOffset dy="4"/>
<feGaussianBlur stdDeviation="3"/>
<feColorMatrix type="matrix" values="0 0 0 0 0 0 0 0 0 0 0 0 0 0 0 0 0 0 0.26 0"/>
<feBlend mode="normal" in2="BackgroundImageFix" result="effect1_dropShadow_330:2"/>
<feBlend mode="normal" in="SourceGraphic" in2="effect1_dropShadow_330:2" result="shape"/>
</filter>
</defs>
</svg>
