<svg width="58" height="64" viewBox="0 0 58 64" fill="none" xmlns="http://www.w3.org/2000/svg">
<mask id="path-1-inside-1" fill="white">
<path fill-rule="evenodd" clip-rule="evenodd" d="M10 0C4.47715 0 0 4.47715 0 10V35C0 40.5228 4.47715 45 10 45H21.4457L29.0884 63.75L36.2854 45H48C53.5228 45 58 40.5228 58 35V10C58 4.47715 53.5229 0 48 0H10Z"/>
</mask>
<path fill-rule="evenodd" clip-rule="evenodd" d="M10 0C4.47715 0 0 4.47715 0 10V35C0 40.5228 4.47715 45 10 45H21.4457L29.0884 63.75L36.2854 45H48C53.5228 45 58 40.5228 58 35V10C58 4.47715 53.5229 0 48 0H10Z" fill="#9610E9"/>
<path d="M21.4457 45L22.3717 44.6225L22.1179 44H21.4457V45ZM29.0884 63.75L28.1624 64.1275L29.1164 66.4678L30.022 64.1083L29.0884 63.75ZM36.2854 45V44H35.5981L35.3518 44.6417L36.2854 45ZM1 10C1 5.02944 5.02944 1 10 1V-1C3.92487 -1 -1 3.92487 -1 10H1ZM1 35V10H-1V35H1ZM10 44C5.02944 44 1 39.9706 1 35H-1C-1 41.0751 3.92487 46 10 46V44ZM21.4457 44H10V46H21.4457V44ZM30.0144 63.3725L22.3717 44.6225L20.5197 45.3775L28.1624 64.1275L30.0144 63.3725ZM35.3518 44.6417L28.1548 63.3917L30.022 64.1083L37.219 45.3583L35.3518 44.6417ZM48 44H36.2854V46H48V44ZM57 35C57 39.9706 52.9706 44 48 44V46C54.0751 46 59 41.0751 59 35H57ZM57 10V35H59V10H57ZM48 1C52.9706 1 57 5.02944 57 10H59C59 3.92487 54.0751 -1 48 -1V1ZM10 1H48V-1H10V1Z" fill="#6807A4" mask="url(#path-1-inside-1)"/>
<path d="M27.5 6C31.5729 6 34.8828 9.30996 34.8828 13.3828C34.8828 14.7609 34.5013 16.1022 33.7753 17.2588L28.0005 26.7094C27.902 26.8694 27.7543 26.9678 27.582 26.9925C27.3483 27.0293 27.0898 26.9309 26.9545 26.6971L21.163 17.1604C20.4741 16.0284 20.1172 14.7118 20.1172 13.3828C20.1172 9.30996 23.4271 6 27.5 6ZM27.5 17.0742C29.5671 17.0742 31.1914 15.4008 31.1914 13.3828C31.1914 11.3525 29.5303 9.69141 27.5 9.69141C25.4697 9.69141 23.8086 11.3525 23.8086 13.3828C23.8086 15.3885 25.4082 17.0742 27.5 17.0742Z" fill="#AF42F1"/>
<path d="M27.5 6V9.69141C25.4697 9.69141 23.8086 11.3525 23.8086 13.3828C23.8086 15.3885 25.4082 17.0742 27.5 17.0742V26.9996C27.29 27.0045 27.0741 26.9039 26.9545 26.6971L21.1631 17.1604C20.4741 16.0284 20.1172 14.7118 20.1172 13.3828C20.1172 9.30996 23.4271 6 27.5 6Z" fill="#7603BD"/>
<path d="M12.4434 29.4688L15.2324 36.4297L18.0215 29.4688H19.4805V38H18.3555V34.6777L18.4609 31.0918L15.6602 38H14.7988L12.0039 31.1094L12.1152 34.6777V38H10.9902V29.4688H12.4434ZM25.2109 38C25.1484 37.875 25.0977 37.6523 25.0586 37.332C24.5547 37.8555 23.9531 38.1172 23.2539 38.1172C22.6289 38.1172 22.1152 37.9414 21.7129 37.5898C21.3145 37.2344 21.1152 36.7852 21.1152 36.2422C21.1152 35.582 21.3652 35.0703 21.8652 34.707C22.3691 34.3398 23.0762 34.1562 23.9863 34.1562H25.041V33.6582C25.041 33.2793 24.9277 32.9785 24.7012 32.7559C24.4746 32.5293 24.1406 32.416 23.6992 32.416C23.3125 32.416 22.9883 32.5137 22.7266 32.709C22.4648 32.9043 22.334 33.1406 22.334 33.418H21.2441C21.2441 33.1016 21.3555 32.7969 21.5781 32.5039C21.8047 32.207 22.1094 31.9727 22.4922 31.8008C22.8789 31.6289 23.3027 31.543 23.7637 31.543C24.4941 31.543 25.0664 31.7266 25.4805 32.0938C25.8945 32.457 26.1094 32.959 26.125 33.5996V36.5176C26.125 37.0996 26.1992 37.5625 26.3477 37.9062V38H25.2109ZM23.4121 37.1738C23.752 37.1738 24.0742 37.0859 24.3789 36.9102C24.6836 36.7344 24.9043 36.5059 25.041 36.2246V34.9238H24.1914C22.8633 34.9238 22.1992 35.3125 22.1992 36.0898C22.1992 36.4297 22.3125 36.6953 22.5391 36.8867C22.7656 37.0781 23.0566 37.1738 23.4121 37.1738ZM30.8887 32.6328C30.7246 32.6055 30.5469 32.5918 30.3555 32.5918C29.6445 32.5918 29.1621 32.8945 28.9082 33.5V38H27.8242V31.6602H28.8789L28.8965 32.3926C29.252 31.8262 29.7559 31.543 30.4082 31.543C30.6191 31.543 30.7793 31.5703 30.8887 31.625V32.6328ZM33.6602 35.0645L32.9805 35.7734V38H31.8965V29H32.9805V34.4434L33.5605 33.7461L35.5352 31.6602H36.8535L34.3867 34.3086L37.1406 38H35.8691L33.6602 35.0645ZM40.4863 38.1172C39.627 38.1172 38.9277 37.8359 38.3887 37.2734C37.8496 36.707 37.5801 35.9512 37.5801 35.0059V34.8066C37.5801 34.1777 37.6992 33.6172 37.9375 33.125C38.1797 32.6289 38.5156 32.2422 38.9453 31.9648C39.3789 31.6836 39.8477 31.543 40.3516 31.543C41.1758 31.543 41.8164 31.8145 42.2734 32.3574C42.7305 32.9004 42.959 33.6777 42.959 34.6895V35.1406H38.6641C38.6797 35.7656 38.8613 36.2715 39.209 36.6582C39.5605 37.041 40.0059 37.2324 40.5449 37.2324C40.9277 37.2324 41.252 37.1543 41.5176 36.998C41.7832 36.8418 42.0156 36.6348 42.2148 36.377L42.877 36.8926C42.3457 37.709 41.5488 38.1172 40.4863 38.1172ZM40.3516 32.4336C39.9141 32.4336 39.5469 32.5938 39.25 32.9141C38.9531 33.2305 38.7695 33.6758 38.6992 34.25H41.875V34.168C41.8438 33.6172 41.6953 33.1914 41.4297 32.8906C41.1641 32.5859 40.8047 32.4336 40.3516 32.4336ZM47.2832 32.6328C47.1191 32.6055 46.9414 32.5918 46.75 32.5918C46.0391 32.5918 45.5566 32.8945 45.3027 33.5V38H44.2188V31.6602H45.2734L45.291 32.3926C45.6465 31.8262 46.1504 31.543 46.8027 31.543C47.0137 31.543 47.1738 31.5703 47.2832 31.625V32.6328Z" fill="white"/>
</svg>
