<svg width="238" height="100" viewBox="0 0 238 100" fill="none" xmlns="http://www.w3.org/2000/svg">
<rect x="2" y="10" width="234" height="80" stroke="#EAEAEA" stroke-width="4"/>
<line x1="116" y1="10" x2="238" y2="10" stroke="black" stroke-width="4"/>
<line x1="55" y1="90" x2="238" y2="90" stroke="black" stroke-width="4"/>
<line x1="236" y1="90" x2="236" y2="10" stroke="black" stroke-width="4"/>
<path d="M35.232 67.384C30.848 67.384 27.744 66.952 25.92 66.088C24.096 65.224 22.928 63.72 22.416 61.576C21.936 59.4 21.696 55.704 21.696 50.488C21.696 45.272 21.936 41.592 22.416 39.448C22.928 37.272 24.096 35.752 25.92 34.888C27.744 34.024 30.848 33.592 35.232 33.592C39.584 33.592 42.672 34.024 44.496 34.888C46.352 35.752 47.52 37.272 48 39.448C48.512 41.592 48.768 45.272 48.768 50.488C48.768 55.704 48.512 59.4 48 61.576C47.52 63.72 46.352 65.224 44.496 66.088C42.672 66.952 39.584 67.384 35.232 67.384ZM35.232 63.544C38.496 63.544 40.704 63.336 41.856 62.92C43.008 62.504 43.76 61.464 44.112 59.8C44.464 58.136 44.64 55.032 44.64 50.488C44.64 45.944 44.464 42.84 44.112 41.176C43.76 39.512 43.008 38.472 41.856 38.056C40.704 37.64 38.496 37.432 35.232 37.432C31.968 37.432 29.744 37.64 28.56 38.056C27.408 38.472 26.656 39.512 26.304 41.176C25.952 42.84 25.776 45.944 25.776 50.488C25.776 55.032 25.952 58.136 26.304 59.8C26.656 61.464 27.408 62.504 28.56 62.92C29.744 63.336 31.968 63.544 35.232 63.544ZM76.3091 67.384C74.3251 67.384 72.6451 67.128 71.2691 66.616C69.8931 66.072 68.8851 65.064 68.2451 63.592H67.9571L67.7651 67H64.3091V31.336H68.1971V45.592H68.4371C69.0771 44.312 70.0371 43.416 71.3171 42.904C72.6291 42.392 74.3251 42.136 76.4051 42.136C78.8051 42.136 80.6291 42.504 81.8771 43.24C83.1571 43.976 84.0531 45.24 84.5651 47.032C85.1091 48.792 85.3811 51.368 85.3811 54.76C85.3811 58.152 85.1091 60.744 84.5651 62.536C84.0531 64.296 83.1571 65.544 81.8771 66.28C80.5971 67.016 78.7411 67.384 76.3091 67.384ZM74.7731 63.64C76.8531 63.64 78.3251 63.448 79.1891 63.064C80.0851 62.68 80.6771 61.896 80.9651 60.712C81.2851 59.528 81.4451 57.544 81.4451 54.76C81.4451 52.008 81.2851 50.056 80.9651 48.904C80.6771 47.72 80.0851 46.936 79.1891 46.552C78.3251 46.136 76.8531 45.928 74.7731 45.928C73.2051 45.928 71.9571 46.12 71.0291 46.504C70.1011 46.888 69.4451 47.48 69.0611 48.28C68.7091 48.984 68.4691 49.832 68.3411 50.824C68.2451 51.816 68.1971 53.128 68.1971 54.76C68.1971 56.456 68.2451 57.784 68.3411 58.744C68.4371 59.704 68.6611 60.536 69.0131 61.24C69.4291 62.072 70.1011 62.68 71.0291 63.064C71.9571 63.448 73.2051 63.64 74.7731 63.64ZM119.933 56.152H103.181C103.181 58.488 103.341 60.152 103.661 61.144C103.981 62.136 104.669 62.84 105.725 63.256C106.813 63.64 108.621 63.832 111.149 63.832C113.613 63.832 116.221 63.656 118.973 63.304V66.712C117.949 66.904 116.621 67.064 114.989 67.192C113.357 67.32 111.805 67.384 110.333 67.384C107.037 67.384 104.605 67 103.037 66.232C101.501 65.464 100.493 64.232 100.013 62.536C99.5325 60.84 99.2925 58.264 99.2925 54.808C99.2925 51.416 99.5005 48.872 99.9165 47.176C100.365 45.48 101.341 44.216 102.845 43.384C104.381 42.552 106.797 42.136 110.093 42.136C113.165 42.136 115.389 42.552 116.765 43.384C118.141 44.184 119.005 45.416 119.357 47.08C119.741 48.712 119.933 51.272 119.933 54.76V56.152ZM109.997 45.688C107.917 45.688 106.413 45.88 105.485 46.264C104.589 46.616 103.981 47.304 103.661 48.328C103.373 49.32 103.213 50.936 103.181 53.176H116.189V52.792C116.189 50.68 115.997 49.128 115.613 48.136C115.261 47.144 114.669 46.488 113.837 46.168C113.005 45.848 111.725 45.688 109.997 45.688ZM134.888 42.52H138.344L138.536 47.176H138.824C139.4 45.256 140.36 43.944 141.704 43.24C143.048 42.504 144.808 42.136 146.984 42.136V46.312C144.776 46.312 143.08 46.648 141.896 47.32C140.712 47.992 139.896 49.032 139.448 50.44C139 51.816 138.776 53.688 138.776 56.056V67H134.888V42.52ZM169.655 67.384C166.231 67.384 163.783 67.048 162.311 66.376C160.839 65.672 159.895 64.504 159.479 62.872C159.095 61.208 158.903 58.504 158.903 54.76C158.903 51.016 159.095 48.328 159.479 46.696C159.895 45.032 160.839 43.864 162.311 43.192C163.783 42.488 166.231 42.136 169.655 42.136C173.047 42.136 175.479 42.488 176.951 43.192C178.423 43.864 179.351 45.032 179.735 46.696C180.151 48.328 180.359 51.016 180.359 54.76C180.359 58.504 180.151 61.208 179.735 62.872C179.351 64.504 178.423 65.672 176.951 66.376C175.479 67.048 173.047 67.384 169.655 67.384ZM169.655 63.832C171.991 63.832 173.607 63.624 174.503 63.208C175.399 62.792 175.943 62.04 176.135 60.952C176.359 59.832 176.471 57.768 176.471 54.76C176.471 51.752 176.359 49.704 176.135 48.616C175.943 47.496 175.399 46.728 174.503 46.312C173.607 45.896 171.991 45.688 169.655 45.688C167.319 45.688 165.687 45.896 164.759 46.312C163.863 46.728 163.303 47.496 163.079 48.616C162.887 49.704 162.791 51.752 162.791 54.76C162.791 57.768 162.887 59.832 163.079 60.952C163.303 62.04 163.863 62.792 164.759 63.208C165.687 63.624 167.319 63.832 169.655 63.832ZM211.902 53.224C211.902 50.952 211.758 49.336 211.47 48.376C211.182 47.384 210.638 46.728 209.838 46.408C209.038 46.088 207.694 45.928 205.806 45.928C203.79 45.928 202.302 46.248 201.342 46.888C200.414 47.528 199.822 48.408 199.566 49.528C199.342 50.648 199.23 52.264 199.23 54.376V67H195.342V42.52H198.798L198.99 45.976H199.278C199.822 44.728 200.718 43.784 201.966 43.144C203.214 42.472 205.022 42.136 207.39 42.136C209.758 42.136 211.534 42.472 212.718 43.144C213.934 43.816 214.75 44.824 215.166 46.168C215.582 47.48 215.79 49.32 215.79 51.688V67H211.902V53.224Z" fill="#EAEAEA"/>
<path d="M104 10L119 1.33974V18.6603L104 10Z" fill="black"/>
<path d="M69 90L54 98.6603V81.3397L69 90Z" fill="#EAEAEA"/>
</svg>
